<mxfile host="app.diagrams.net" agent="Mozilla/5.0 (Windows NT 10.0; Win64; x64) AppleWebKit/537.36 (KHTML, like Gecko) Chrome/131.0.0.0 Safari/537.36 OPR/116.0.0.0" version="26.1.0">
  <diagram id="C5RBs43oDa-KdzZeNtuy" name="Page-1">
    <mxGraphModel dx="3096" dy="1158" grid="1" gridSize="10" guides="1" tooltips="1" connect="1" arrows="1" fold="1" page="1" pageScale="1" pageWidth="827" pageHeight="1169" math="0" shadow="0">
      <root>
        <mxCell id="WIyWlLk6GJQsqaUBKTNV-0" />
        <mxCell id="WIyWlLk6GJQsqaUBKTNV-1" parent="WIyWlLk6GJQsqaUBKTNV-0" />
        <mxCell id="Nb0FAlVZq8CyjeHVWFym-7" style="edgeStyle=orthogonalEdgeStyle;rounded=0;orthogonalLoop=1;jettySize=auto;html=1;exitX=0.5;exitY=1;exitDx=0;exitDy=0;exitPerimeter=0;" parent="WIyWlLk6GJQsqaUBKTNV-1" source="fssildkIFDFYgh99PBcJ-0" edge="1">
          <mxGeometry relative="1" as="geometry">
            <mxPoint x="125" y="150" as="targetPoint" />
          </mxGeometry>
        </mxCell>
        <mxCell id="fssildkIFDFYgh99PBcJ-0" value="function&lt;div&gt;add_data&lt;/div&gt;" style="strokeWidth=2;html=1;shape=mxgraph.flowchart.start_1;whiteSpace=wrap;" parent="WIyWlLk6GJQsqaUBKTNV-1" vertex="1">
          <mxGeometry x="70" y="45" width="110" height="70" as="geometry" />
        </mxCell>
        <mxCell id="fssildkIFDFYgh99PBcJ-20" style="edgeStyle=orthogonalEdgeStyle;rounded=0;orthogonalLoop=1;jettySize=auto;html=1;exitX=0.5;exitY=1;exitDx=0;exitDy=0;exitPerimeter=0;entryX=0.5;entryY=0;entryDx=0;entryDy=0;" parent="WIyWlLk6GJQsqaUBKTNV-1" source="fssildkIFDFYgh99PBcJ-1" target="fssildkIFDFYgh99PBcJ-18" edge="1">
          <mxGeometry relative="1" as="geometry" />
        </mxCell>
        <mxCell id="fssildkIFDFYgh99PBcJ-1" value="function main_user_update" style="strokeWidth=2;html=1;shape=mxgraph.flowchart.start_1;whiteSpace=wrap;" parent="WIyWlLk6GJQsqaUBKTNV-1" vertex="1">
          <mxGeometry x="290" y="50" width="110" height="60" as="geometry" />
        </mxCell>
        <mxCell id="fssildkIFDFYgh99PBcJ-2" value="function initialize_database" style="strokeWidth=2;html=1;shape=mxgraph.flowchart.start_1;whiteSpace=wrap;" parent="WIyWlLk6GJQsqaUBKTNV-1" vertex="1">
          <mxGeometry x="560" y="20" width="110" height="70" as="geometry" />
        </mxCell>
        <mxCell id="fssildkIFDFYgh99PBcJ-11" style="edgeStyle=orthogonalEdgeStyle;rounded=0;orthogonalLoop=1;jettySize=auto;html=1;exitX=1;exitY=0.5;exitDx=0;exitDy=0;exitPerimeter=0;entryX=0;entryY=0.5;entryDx=0;entryDy=0;" parent="WIyWlLk6GJQsqaUBKTNV-1" source="fssildkIFDFYgh99PBcJ-3" target="fssildkIFDFYgh99PBcJ-12" edge="1">
          <mxGeometry relative="1" as="geometry">
            <mxPoint x="650" y="210" as="targetPoint" />
          </mxGeometry>
        </mxCell>
        <mxCell id="fssildkIFDFYgh99PBcJ-3" value="&lt;font style=&quot;font-size: 10px;&quot;&gt;does localstorage item&amp;nbsp; exist&lt;/font&gt;" style="strokeWidth=2;html=1;shape=mxgraph.flowchart.decision;whiteSpace=wrap;" parent="WIyWlLk6GJQsqaUBKTNV-1" vertex="1">
          <mxGeometry x="510" y="150" width="140" height="120" as="geometry" />
        </mxCell>
        <mxCell id="fssildkIFDFYgh99PBcJ-4" style="edgeStyle=orthogonalEdgeStyle;rounded=0;orthogonalLoop=1;jettySize=auto;html=1;exitX=0.5;exitY=1;exitDx=0;exitDy=0;exitPerimeter=0;entryX=0.5;entryY=0;entryDx=0;entryDy=0;entryPerimeter=0;" parent="WIyWlLk6GJQsqaUBKTNV-1" source="fssildkIFDFYgh99PBcJ-2" target="fssildkIFDFYgh99PBcJ-3" edge="1">
          <mxGeometry relative="1" as="geometry" />
        </mxCell>
        <mxCell id="fssildkIFDFYgh99PBcJ-8" value="end" style="strokeWidth=2;html=1;shape=mxgraph.flowchart.start_1;whiteSpace=wrap;" parent="WIyWlLk6GJQsqaUBKTNV-1" vertex="1">
          <mxGeometry x="550" y="390" width="100" height="60" as="geometry" />
        </mxCell>
        <mxCell id="fssildkIFDFYgh99PBcJ-9" style="edgeStyle=orthogonalEdgeStyle;rounded=0;orthogonalLoop=1;jettySize=auto;html=1;exitX=0.5;exitY=1;exitDx=0;exitDy=0;exitPerimeter=0;entryX=0.5;entryY=0;entryDx=0;entryDy=0;entryPerimeter=0;" parent="WIyWlLk6GJQsqaUBKTNV-1" source="fssildkIFDFYgh99PBcJ-3" target="fssildkIFDFYgh99PBcJ-8" edge="1">
          <mxGeometry relative="1" as="geometry" />
        </mxCell>
        <mxCell id="fssildkIFDFYgh99PBcJ-10" value="True" style="text;html=1;align=center;verticalAlign=middle;resizable=0;points=[];autosize=1;strokeColor=none;fillColor=none;" parent="WIyWlLk6GJQsqaUBKTNV-1" vertex="1">
          <mxGeometry x="530" y="288" width="50" height="30" as="geometry" />
        </mxCell>
        <mxCell id="fssildkIFDFYgh99PBcJ-12" value="create localstorage item with empty list" style="rounded=0;whiteSpace=wrap;html=1;" parent="WIyWlLk6GJQsqaUBKTNV-1" vertex="1">
          <mxGeometry x="700" y="180" width="120" height="60" as="geometry" />
        </mxCell>
        <mxCell id="fssildkIFDFYgh99PBcJ-13" style="edgeStyle=orthogonalEdgeStyle;rounded=0;orthogonalLoop=1;jettySize=auto;html=1;exitX=0.5;exitY=1;exitDx=0;exitDy=0;entryX=1;entryY=0.5;entryDx=0;entryDy=0;entryPerimeter=0;" parent="WIyWlLk6GJQsqaUBKTNV-1" source="fssildkIFDFYgh99PBcJ-12" target="fssildkIFDFYgh99PBcJ-8" edge="1">
          <mxGeometry relative="1" as="geometry" />
        </mxCell>
        <mxCell id="fssildkIFDFYgh99PBcJ-14" value="Fasle" style="text;html=1;align=center;verticalAlign=middle;resizable=0;points=[];autosize=1;strokeColor=none;fillColor=none;" parent="WIyWlLk6GJQsqaUBKTNV-1" vertex="1">
          <mxGeometry x="650" y="180" width="50" height="30" as="geometry" />
        </mxCell>
        <mxCell id="fssildkIFDFYgh99PBcJ-21" style="edgeStyle=orthogonalEdgeStyle;rounded=0;orthogonalLoop=1;jettySize=auto;html=1;exitX=0.5;exitY=1;exitDx=0;exitDy=0;" parent="WIyWlLk6GJQsqaUBKTNV-1" source="fssildkIFDFYgh99PBcJ-18" edge="1">
          <mxGeometry relative="1" as="geometry">
            <mxPoint x="355" y="310" as="targetPoint" />
          </mxGeometry>
        </mxCell>
        <mxCell id="fssildkIFDFYgh99PBcJ-18" value="&lt;font style=&quot;font-size: 10px;&quot;&gt;takes in the local storage item that&amp;nbsp;&lt;/font&gt;&lt;div&gt;&lt;span style=&quot;font-size: 10px; background-color: transparent; color: light-dark(rgb(0, 0, 0), rgb(255, 255, 255));&quot;&gt;store and json parses it&lt;/span&gt;&lt;/div&gt;" style="shape=parallelogram;html=1;strokeWidth=2;perimeter=parallelogramPerimeter;whiteSpace=wrap;rounded=1;arcSize=0;size=0.23;" parent="WIyWlLk6GJQsqaUBKTNV-1" vertex="1">
          <mxGeometry x="245" y="150" width="220" height="90" as="geometry" />
        </mxCell>
        <mxCell id="fssildkIFDFYgh99PBcJ-22" value="defines main user username age and state&amp;nbsp;" style="rounded=0;whiteSpace=wrap;html=1;" parent="WIyWlLk6GJQsqaUBKTNV-1" vertex="1">
          <mxGeometry x="295" y="310" width="120" height="60" as="geometry" />
        </mxCell>
        <mxCell id="fssildkIFDFYgh99PBcJ-28" style="edgeStyle=orthogonalEdgeStyle;rounded=0;orthogonalLoop=1;jettySize=auto;html=1;exitX=0.5;exitY=1;exitDx=0;exitDy=0;exitPerimeter=0;" parent="WIyWlLk6GJQsqaUBKTNV-1" source="fssildkIFDFYgh99PBcJ-25" edge="1">
          <mxGeometry relative="1" as="geometry">
            <mxPoint x="348" y="540" as="targetPoint" />
          </mxGeometry>
        </mxCell>
        <mxCell id="Nb0FAlVZq8CyjeHVWFym-5" style="edgeStyle=orthogonalEdgeStyle;rounded=0;orthogonalLoop=1;jettySize=auto;html=1;exitX=1;exitY=0.5;exitDx=0;exitDy=0;exitPerimeter=0;entryX=1;entryY=0.5;entryDx=0;entryDy=0;" parent="WIyWlLk6GJQsqaUBKTNV-1" source="fssildkIFDFYgh99PBcJ-25" target="Nb0FAlVZq8CyjeHVWFym-3" edge="1">
          <mxGeometry relative="1" as="geometry">
            <Array as="points">
              <mxPoint x="405" y="440" />
              <mxPoint x="450" y="440" />
              <mxPoint x="450" y="680" />
            </Array>
          </mxGeometry>
        </mxCell>
        <mxCell id="fssildkIFDFYgh99PBcJ-25" value="&lt;font style=&quot;font-size: 10px;&quot;&gt;check if main user is in database&lt;/font&gt;" style="strokeWidth=2;html=1;shape=mxgraph.flowchart.decision;whiteSpace=wrap;" parent="WIyWlLk6GJQsqaUBKTNV-1" vertex="1">
          <mxGeometry x="290" y="390" width="115" height="110" as="geometry" />
        </mxCell>
        <mxCell id="fssildkIFDFYgh99PBcJ-26" style="edgeStyle=orthogonalEdgeStyle;rounded=0;orthogonalLoop=1;jettySize=auto;html=1;exitX=0.5;exitY=1;exitDx=0;exitDy=0;entryX=0.5;entryY=0;entryDx=0;entryDy=0;entryPerimeter=0;" parent="WIyWlLk6GJQsqaUBKTNV-1" source="fssildkIFDFYgh99PBcJ-22" target="fssildkIFDFYgh99PBcJ-25" edge="1">
          <mxGeometry relative="1" as="geometry" />
        </mxCell>
        <mxCell id="Nb0FAlVZq8CyjeHVWFym-4" style="edgeStyle=orthogonalEdgeStyle;rounded=0;orthogonalLoop=1;jettySize=auto;html=1;exitX=0.5;exitY=1;exitDx=0;exitDy=0;entryX=0.5;entryY=0;entryDx=0;entryDy=0;" parent="WIyWlLk6GJQsqaUBKTNV-1" source="Nb0FAlVZq8CyjeHVWFym-0" target="Nb0FAlVZq8CyjeHVWFym-3" edge="1">
          <mxGeometry relative="1" as="geometry" />
        </mxCell>
        <mxCell id="Nb0FAlVZq8CyjeHVWFym-0" value="add_data(main_user)" style="whiteSpace=wrap;html=1;" parent="WIyWlLk6GJQsqaUBKTNV-1" vertex="1">
          <mxGeometry x="287.5" y="540" width="120" height="60" as="geometry" />
        </mxCell>
        <mxCell id="Nb0FAlVZq8CyjeHVWFym-1" style="edgeStyle=orthogonalEdgeStyle;rounded=0;orthogonalLoop=1;jettySize=auto;html=1;exitX=0;exitY=0.5;exitDx=0;exitDy=0;entryX=1;entryY=0.5;entryDx=0;entryDy=0;entryPerimeter=0;" parent="WIyWlLk6GJQsqaUBKTNV-1" source="Nb0FAlVZq8CyjeHVWFym-0" target="fssildkIFDFYgh99PBcJ-0" edge="1">
          <mxGeometry relative="1" as="geometry" />
        </mxCell>
        <mxCell id="Nb0FAlVZq8CyjeHVWFym-2" value="False" style="text;html=1;align=center;verticalAlign=middle;resizable=0;points=[];autosize=1;strokeColor=none;fillColor=none;" parent="WIyWlLk6GJQsqaUBKTNV-1" vertex="1">
          <mxGeometry x="357.5" y="500" width="50" height="30" as="geometry" />
        </mxCell>
        <mxCell id="Nb0FAlVZq8CyjeHVWFym-3" value="end" style="ellipse;whiteSpace=wrap;html=1;" parent="WIyWlLk6GJQsqaUBKTNV-1" vertex="1">
          <mxGeometry x="304.5" y="650" width="86" height="60" as="geometry" />
        </mxCell>
        <mxCell id="Nb0FAlVZq8CyjeHVWFym-6" value="True" style="text;html=1;align=center;verticalAlign=middle;resizable=0;points=[];autosize=1;strokeColor=none;fillColor=none;" parent="WIyWlLk6GJQsqaUBKTNV-1" vertex="1">
          <mxGeometry x="405" y="418" width="50" height="30" as="geometry" />
        </mxCell>
        <mxCell id="Nb0FAlVZq8CyjeHVWFym-10" value="" style="edgeStyle=orthogonalEdgeStyle;rounded=0;orthogonalLoop=1;jettySize=auto;html=1;" parent="WIyWlLk6GJQsqaUBKTNV-1" source="Nb0FAlVZq8CyjeHVWFym-8" target="Nb0FAlVZq8CyjeHVWFym-9" edge="1">
          <mxGeometry relative="1" as="geometry" />
        </mxCell>
        <mxCell id="Nb0FAlVZq8CyjeHVWFym-8" value="takes in the users data" style="shape=parallelogram;perimeter=parallelogramPerimeter;whiteSpace=wrap;html=1;fixedSize=1;size=10;" parent="WIyWlLk6GJQsqaUBKTNV-1" vertex="1">
          <mxGeometry x="60" y="150" width="130" height="60" as="geometry" />
        </mxCell>
        <mxCell id="Nb0FAlVZq8CyjeHVWFym-19" style="edgeStyle=orthogonalEdgeStyle;rounded=0;orthogonalLoop=1;jettySize=auto;html=1;exitX=0.5;exitY=1;exitDx=0;exitDy=0;entryX=0.5;entryY=0;entryDx=0;entryDy=0;" parent="WIyWlLk6GJQsqaUBKTNV-1" source="Nb0FAlVZq8CyjeHVWFym-9" target="Nb0FAlVZq8CyjeHVWFym-18" edge="1">
          <mxGeometry relative="1" as="geometry" />
        </mxCell>
        <mxCell id="Nb0FAlVZq8CyjeHVWFym-9" value="format user&#39;s data" style="whiteSpace=wrap;html=1;" parent="WIyWlLk6GJQsqaUBKTNV-1" vertex="1">
          <mxGeometry x="65" y="240" width="120" height="60" as="geometry" />
        </mxCell>
        <mxCell id="Nb0FAlVZq8CyjeHVWFym-20" style="edgeStyle=orthogonalEdgeStyle;rounded=0;orthogonalLoop=1;jettySize=auto;html=1;exitX=0.5;exitY=1;exitDx=0;exitDy=0;" parent="WIyWlLk6GJQsqaUBKTNV-1" source="Nb0FAlVZq8CyjeHVWFym-18" edge="1">
          <mxGeometry relative="1" as="geometry">
            <mxPoint x="130" y="440" as="targetPoint" />
          </mxGeometry>
        </mxCell>
        <mxCell id="Nb0FAlVZq8CyjeHVWFym-18" value="takes in localstoarge&lt;div&gt;database&lt;/div&gt;" style="shape=parallelogram;perimeter=parallelogramPerimeter;whiteSpace=wrap;html=1;fixedSize=1;" parent="WIyWlLk6GJQsqaUBKTNV-1" vertex="1">
          <mxGeometry x="60" y="340" width="140" height="60" as="geometry" />
        </mxCell>
        <mxCell id="Nb0FAlVZq8CyjeHVWFym-23" style="edgeStyle=orthogonalEdgeStyle;rounded=0;orthogonalLoop=1;jettySize=auto;html=1;exitX=0.5;exitY=1;exitDx=0;exitDy=0;" parent="WIyWlLk6GJQsqaUBKTNV-1" source="Nb0FAlVZq8CyjeHVWFym-21" edge="1">
          <mxGeometry relative="1" as="geometry">
            <mxPoint x="130" y="610" as="targetPoint" />
          </mxGeometry>
        </mxCell>
        <mxCell id="Nb0FAlVZq8CyjeHVWFym-33" style="edgeStyle=orthogonalEdgeStyle;rounded=0;orthogonalLoop=1;jettySize=auto;html=1;exitX=0;exitY=0.5;exitDx=0;exitDy=0;entryX=0.5;entryY=0;entryDx=0;entryDy=0;" parent="WIyWlLk6GJQsqaUBKTNV-1" source="Nb0FAlVZq8CyjeHVWFym-21" target="Nb0FAlVZq8CyjeHVWFym-32" edge="1">
          <mxGeometry relative="1" as="geometry" />
        </mxCell>
        <mxCell id="Nb0FAlVZq8CyjeHVWFym-21" value="checks&lt;div&gt;if user in&lt;/div&gt;&lt;div&gt;already in the database&lt;/div&gt;" style="rhombus;whiteSpace=wrap;html=1;" parent="WIyWlLk6GJQsqaUBKTNV-1" vertex="1">
          <mxGeometry x="80" y="430" width="100" height="100" as="geometry" />
        </mxCell>
        <mxCell id="Nb0FAlVZq8CyjeHVWFym-24" value="False" style="text;html=1;align=center;verticalAlign=middle;resizable=0;points=[];autosize=1;strokeColor=none;fillColor=none;" parent="WIyWlLk6GJQsqaUBKTNV-1" vertex="1">
          <mxGeometry x="75" y="548" width="50" height="30" as="geometry" />
        </mxCell>
        <mxCell id="Nb0FAlVZq8CyjeHVWFym-30" style="edgeStyle=orthogonalEdgeStyle;rounded=0;orthogonalLoop=1;jettySize=auto;html=1;exitX=0.5;exitY=1;exitDx=0;exitDy=0;entryX=0.5;entryY=0;entryDx=0;entryDy=0;" parent="WIyWlLk6GJQsqaUBKTNV-1" source="Nb0FAlVZq8CyjeHVWFym-28" target="Nb0FAlVZq8CyjeHVWFym-29" edge="1">
          <mxGeometry relative="1" as="geometry" />
        </mxCell>
        <mxCell id="Nb0FAlVZq8CyjeHVWFym-28" value="adds the user&#39;s data&lt;div&gt;to the database&lt;/div&gt;" style="shape=parallelogram;perimeter=parallelogramPerimeter;whiteSpace=wrap;html=1;fixedSize=1;" parent="WIyWlLk6GJQsqaUBKTNV-1" vertex="1">
          <mxGeometry x="60" y="610" width="130" height="60" as="geometry" />
        </mxCell>
        <mxCell id="Nb0FAlVZq8CyjeHVWFym-29" value="end" style="ellipse;whiteSpace=wrap;html=1;" parent="WIyWlLk6GJQsqaUBKTNV-1" vertex="1">
          <mxGeometry x="70" y="700" width="100" height="60" as="geometry" />
        </mxCell>
        <mxCell id="Nb0FAlVZq8CyjeHVWFym-34" style="edgeStyle=orthogonalEdgeStyle;rounded=0;orthogonalLoop=1;jettySize=auto;html=1;exitX=0.5;exitY=1;exitDx=0;exitDy=0;entryX=0;entryY=0.5;entryDx=0;entryDy=0;" parent="WIyWlLk6GJQsqaUBKTNV-1" source="Nb0FAlVZq8CyjeHVWFym-32" target="Nb0FAlVZq8CyjeHVWFym-29" edge="1">
          <mxGeometry relative="1" as="geometry" />
        </mxCell>
        <mxCell id="Nb0FAlVZq8CyjeHVWFym-32" value="alert that the username is invaild" style="whiteSpace=wrap;html=1;" parent="WIyWlLk6GJQsqaUBKTNV-1" vertex="1">
          <mxGeometry y="520" width="80" height="40" as="geometry" />
        </mxCell>
        <mxCell id="Nb0FAlVZq8CyjeHVWFym-35" value="True" style="text;html=1;align=center;verticalAlign=middle;resizable=0;points=[];autosize=1;strokeColor=none;fillColor=none;" parent="WIyWlLk6GJQsqaUBKTNV-1" vertex="1">
          <mxGeometry x="25" y="448" width="50" height="30" as="geometry" />
        </mxCell>
        <mxCell id="Nb0FAlVZq8CyjeHVWFym-38" style="edgeStyle=orthogonalEdgeStyle;rounded=0;orthogonalLoop=1;jettySize=auto;html=1;exitX=0.5;exitY=1;exitDx=0;exitDy=0;entryX=0.5;entryY=0;entryDx=0;entryDy=0;" parent="WIyWlLk6GJQsqaUBKTNV-1" source="Nb0FAlVZq8CyjeHVWFym-36" target="Nb0FAlVZq8CyjeHVWFym-37" edge="1">
          <mxGeometry relative="1" as="geometry" />
        </mxCell>
        <mxCell id="Nb0FAlVZq8CyjeHVWFym-36" value="function clear_table" style="ellipse;whiteSpace=wrap;html=1;" parent="WIyWlLk6GJQsqaUBKTNV-1" vertex="1">
          <mxGeometry x="65" y="810" width="120" height="80" as="geometry" />
        </mxCell>
        <mxCell id="Nb0FAlVZq8CyjeHVWFym-40" style="edgeStyle=orthogonalEdgeStyle;rounded=0;orthogonalLoop=1;jettySize=auto;html=1;exitX=0.5;exitY=1;exitDx=0;exitDy=0;entryX=0.5;entryY=0;entryDx=0;entryDy=0;" parent="WIyWlLk6GJQsqaUBKTNV-1" source="Nb0FAlVZq8CyjeHVWFym-37" target="Nb0FAlVZq8CyjeHVWFym-39" edge="1">
          <mxGeometry relative="1" as="geometry" />
        </mxCell>
        <mxCell id="Nb0FAlVZq8CyjeHVWFym-37" value="gets all the tables&amp;nbsp;&lt;div&gt;from the website&lt;/div&gt;" style="shape=parallelogram;perimeter=parallelogramPerimeter;whiteSpace=wrap;html=1;fixedSize=1;" parent="WIyWlLk6GJQsqaUBKTNV-1" vertex="1">
          <mxGeometry x="60" y="930" width="120" height="60" as="geometry" />
        </mxCell>
        <mxCell id="Nb0FAlVZq8CyjeHVWFym-39" value="removes all table&lt;div&gt;with remove fucntion&lt;/div&gt;" style="shape=parallelogram;perimeter=parallelogramPerimeter;whiteSpace=wrap;html=1;fixedSize=1;" parent="WIyWlLk6GJQsqaUBKTNV-1" vertex="1">
          <mxGeometry x="50" y="1020" width="140" height="60" as="geometry" />
        </mxCell>
        <mxCell id="Nb0FAlVZq8CyjeHVWFym-41" value="end" style="ellipse;whiteSpace=wrap;html=1;" parent="WIyWlLk6GJQsqaUBKTNV-1" vertex="1">
          <mxGeometry x="75" y="1100.5" width="90" height="59" as="geometry" />
        </mxCell>
        <mxCell id="Nb0FAlVZq8CyjeHVWFym-42" style="edgeStyle=orthogonalEdgeStyle;rounded=0;orthogonalLoop=1;jettySize=auto;html=1;exitX=0.5;exitY=1;exitDx=0;exitDy=0;entryX=0.578;entryY=-0.051;entryDx=0;entryDy=0;entryPerimeter=0;" parent="WIyWlLk6GJQsqaUBKTNV-1" source="Nb0FAlVZq8CyjeHVWFym-39" target="Nb0FAlVZq8CyjeHVWFym-41" edge="1">
          <mxGeometry relative="1" as="geometry" />
        </mxCell>
        <mxCell id="Nb0FAlVZq8CyjeHVWFym-45" value="" style="edgeStyle=orthogonalEdgeStyle;rounded=0;orthogonalLoop=1;jettySize=auto;html=1;" parent="WIyWlLk6GJQsqaUBKTNV-1" source="Nb0FAlVZq8CyjeHVWFym-43" target="Nb0FAlVZq8CyjeHVWFym-44" edge="1">
          <mxGeometry relative="1" as="geometry" />
        </mxCell>
        <mxCell id="Nb0FAlVZq8CyjeHVWFym-43" value="function clear_database" style="ellipse;whiteSpace=wrap;html=1;" parent="WIyWlLk6GJQsqaUBKTNV-1" vertex="1">
          <mxGeometry x="345" y="730" width="120" height="80" as="geometry" />
        </mxCell>
        <mxCell id="Nb0FAlVZq8CyjeHVWFym-48" style="edgeStyle=orthogonalEdgeStyle;rounded=0;orthogonalLoop=1;jettySize=auto;html=1;exitX=0.5;exitY=1;exitDx=0;exitDy=0;entryX=0.5;entryY=0;entryDx=0;entryDy=0;" parent="WIyWlLk6GJQsqaUBKTNV-1" source="Nb0FAlVZq8CyjeHVWFym-44" target="Nb0FAlVZq8CyjeHVWFym-46" edge="1">
          <mxGeometry relative="1" as="geometry" />
        </mxCell>
        <mxCell id="Nb0FAlVZq8CyjeHVWFym-44" value="clear localstorage&lt;div&gt;database&lt;/div&gt;" style="shape=parallelogram;perimeter=parallelogramPerimeter;whiteSpace=wrap;html=1;fixedSize=1;" parent="WIyWlLk6GJQsqaUBKTNV-1" vertex="1">
          <mxGeometry x="345" y="830" width="120" height="60" as="geometry" />
        </mxCell>
        <mxCell id="Nb0FAlVZq8CyjeHVWFym-47" style="edgeStyle=orthogonalEdgeStyle;rounded=0;orthogonalLoop=1;jettySize=auto;html=1;entryX=1;entryY=0.5;entryDx=0;entryDy=0;" parent="WIyWlLk6GJQsqaUBKTNV-1" source="Nb0FAlVZq8CyjeHVWFym-46" target="Nb0FAlVZq8CyjeHVWFym-36" edge="1">
          <mxGeometry relative="1" as="geometry" />
        </mxCell>
        <mxCell id="Nb0FAlVZq8CyjeHVWFym-52" style="edgeStyle=orthogonalEdgeStyle;rounded=0;orthogonalLoop=1;jettySize=auto;html=1;exitX=0.5;exitY=1;exitDx=0;exitDy=0;entryX=0.5;entryY=0;entryDx=0;entryDy=0;" parent="WIyWlLk6GJQsqaUBKTNV-1" source="Nb0FAlVZq8CyjeHVWFym-46" target="Nb0FAlVZq8CyjeHVWFym-49" edge="1">
          <mxGeometry relative="1" as="geometry" />
        </mxCell>
        <mxCell id="Nb0FAlVZq8CyjeHVWFym-46" value="call clear_table" style="whiteSpace=wrap;html=1;" parent="WIyWlLk6GJQsqaUBKTNV-1" vertex="1">
          <mxGeometry x="355" y="920" width="95" height="60" as="geometry" />
        </mxCell>
        <mxCell id="Nb0FAlVZq8CyjeHVWFym-54" style="edgeStyle=orthogonalEdgeStyle;rounded=0;orthogonalLoop=1;jettySize=auto;html=1;exitX=0.5;exitY=1;exitDx=0;exitDy=0;entryX=0.5;entryY=0;entryDx=0;entryDy=0;" parent="WIyWlLk6GJQsqaUBKTNV-1" source="Nb0FAlVZq8CyjeHVWFym-49" target="Nb0FAlVZq8CyjeHVWFym-53" edge="1">
          <mxGeometry relative="1" as="geometry" />
        </mxCell>
        <mxCell id="Nb0FAlVZq8CyjeHVWFym-49" value="call main_user_update" style="whiteSpace=wrap;html=1;" parent="WIyWlLk6GJQsqaUBKTNV-1" vertex="1">
          <mxGeometry x="352.5" y="1020" width="100" height="50" as="geometry" />
        </mxCell>
        <mxCell id="Nb0FAlVZq8CyjeHVWFym-51" style="edgeStyle=orthogonalEdgeStyle;rounded=0;orthogonalLoop=1;jettySize=auto;html=1;exitX=1;exitY=0.5;exitDx=0;exitDy=0;entryX=1;entryY=0.5;entryDx=0;entryDy=0;entryPerimeter=0;" parent="WIyWlLk6GJQsqaUBKTNV-1" source="Nb0FAlVZq8CyjeHVWFym-49" target="fssildkIFDFYgh99PBcJ-1" edge="1">
          <mxGeometry relative="1" as="geometry" />
        </mxCell>
        <mxCell id="Nb0FAlVZq8CyjeHVWFym-53" value="end" style="ellipse;whiteSpace=wrap;html=1;" parent="WIyWlLk6GJQsqaUBKTNV-1" vertex="1">
          <mxGeometry x="361.25" y="1110" width="82.5" height="40" as="geometry" />
        </mxCell>
        <mxCell id="Nb0FAlVZq8CyjeHVWFym-56" value="function submit_data" style="ellipse;whiteSpace=wrap;html=1;" parent="WIyWlLk6GJQsqaUBKTNV-1" vertex="1">
          <mxGeometry x="930" y="15" width="120" height="80" as="geometry" />
        </mxCell>
        <mxCell id="Nb0FAlVZq8CyjeHVWFym-62" style="edgeStyle=orthogonalEdgeStyle;rounded=0;orthogonalLoop=1;jettySize=auto;html=1;exitX=0.5;exitY=1;exitDx=0;exitDy=0;entryX=0.5;entryY=0;entryDx=0;entryDy=0;" parent="WIyWlLk6GJQsqaUBKTNV-1" source="Nb0FAlVZq8CyjeHVWFym-58" target="Nb0FAlVZq8CyjeHVWFym-60" edge="1">
          <mxGeometry relative="1" as="geometry" />
        </mxCell>
        <mxCell id="Nb0FAlVZq8CyjeHVWFym-58" value="takes in user&#39;s&lt;div&gt;form entries&lt;/div&gt;" style="shape=parallelogram;perimeter=parallelogramPerimeter;whiteSpace=wrap;html=1;fixedSize=1;" parent="WIyWlLk6GJQsqaUBKTNV-1" vertex="1">
          <mxGeometry x="930" y="120" width="110" height="60" as="geometry" />
        </mxCell>
        <mxCell id="Nb0FAlVZq8CyjeHVWFym-64" value="" style="edgeStyle=orthogonalEdgeStyle;rounded=0;orthogonalLoop=1;jettySize=auto;html=1;" parent="WIyWlLk6GJQsqaUBKTNV-1" source="Nb0FAlVZq8CyjeHVWFym-60" target="Nb0FAlVZq8CyjeHVWFym-63" edge="1">
          <mxGeometry relative="1" as="geometry" />
        </mxCell>
        <mxCell id="Nb0FAlVZq8CyjeHVWFym-73" style="edgeStyle=orthogonalEdgeStyle;rounded=0;orthogonalLoop=1;jettySize=auto;html=1;exitX=0.5;exitY=1;exitDx=0;exitDy=0;entryX=0.5;entryY=0;entryDx=0;entryDy=0;" parent="WIyWlLk6GJQsqaUBKTNV-1" source="Nb0FAlVZq8CyjeHVWFym-60" target="Nb0FAlVZq8CyjeHVWFym-72" edge="1">
          <mxGeometry relative="1" as="geometry" />
        </mxCell>
        <mxCell id="Nb0FAlVZq8CyjeHVWFym-60" value="checks if user&amp;nbsp;&lt;div&gt;entered a&amp;nbsp;&lt;/div&gt;&lt;div&gt;username&lt;/div&gt;" style="rhombus;whiteSpace=wrap;html=1;" parent="WIyWlLk6GJQsqaUBKTNV-1" vertex="1">
          <mxGeometry x="930" y="210" width="95" height="90" as="geometry" />
        </mxCell>
        <mxCell id="Nb0FAlVZq8CyjeHVWFym-61" style="edgeStyle=orthogonalEdgeStyle;rounded=0;orthogonalLoop=1;jettySize=auto;html=1;exitX=0.5;exitY=1;exitDx=0;exitDy=0;entryX=0.588;entryY=0.072;entryDx=0;entryDy=0;entryPerimeter=0;" parent="WIyWlLk6GJQsqaUBKTNV-1" source="Nb0FAlVZq8CyjeHVWFym-56" target="Nb0FAlVZq8CyjeHVWFym-58" edge="1">
          <mxGeometry relative="1" as="geometry" />
        </mxCell>
        <mxCell id="Nb0FAlVZq8CyjeHVWFym-68" style="edgeStyle=orthogonalEdgeStyle;rounded=0;orthogonalLoop=1;jettySize=auto;html=1;exitX=0.5;exitY=1;exitDx=0;exitDy=0;entryX=1;entryY=0.5;entryDx=0;entryDy=0;" parent="WIyWlLk6GJQsqaUBKTNV-1" source="Nb0FAlVZq8CyjeHVWFym-63" target="Nb0FAlVZq8CyjeHVWFym-66" edge="1">
          <mxGeometry relative="1" as="geometry" />
        </mxCell>
        <mxCell id="Nb0FAlVZq8CyjeHVWFym-63" value="alert them to enter a username" style="whiteSpace=wrap;html=1;" parent="WIyWlLk6GJQsqaUBKTNV-1" vertex="1">
          <mxGeometry x="1150" y="225" width="120" height="60" as="geometry" />
        </mxCell>
        <mxCell id="Nb0FAlVZq8CyjeHVWFym-115" style="edgeStyle=orthogonalEdgeStyle;rounded=0;orthogonalLoop=1;jettySize=auto;html=1;exitX=0.5;exitY=1;exitDx=0;exitDy=0;" parent="WIyWlLk6GJQsqaUBKTNV-1" source="Nb0FAlVZq8CyjeHVWFym-65" edge="1">
          <mxGeometry relative="1" as="geometry">
            <mxPoint x="-300" y="190" as="targetPoint" />
          </mxGeometry>
        </mxCell>
        <mxCell id="Nb0FAlVZq8CyjeHVWFym-65" value="start" style="ellipse;whiteSpace=wrap;html=1;" parent="WIyWlLk6GJQsqaUBKTNV-1" vertex="1">
          <mxGeometry x="-360" y="30" width="120" height="80" as="geometry" />
        </mxCell>
        <mxCell id="Nb0FAlVZq8CyjeHVWFym-66" value="end" style="ellipse;whiteSpace=wrap;html=1;" parent="WIyWlLk6GJQsqaUBKTNV-1" vertex="1">
          <mxGeometry x="917.5" y="1105" width="95" height="50" as="geometry" />
        </mxCell>
        <mxCell id="Nb0FAlVZq8CyjeHVWFym-67" value="Fasle" style="text;html=1;align=center;verticalAlign=middle;resizable=0;points=[];autosize=1;strokeColor=none;fillColor=none;" parent="WIyWlLk6GJQsqaUBKTNV-1" vertex="1">
          <mxGeometry x="1025" y="228" width="50" height="30" as="geometry" />
        </mxCell>
        <mxCell id="Nb0FAlVZq8CyjeHVWFym-76" style="edgeStyle=orthogonalEdgeStyle;rounded=0;orthogonalLoop=1;jettySize=auto;html=1;exitX=1;exitY=0.5;exitDx=0;exitDy=0;" parent="WIyWlLk6GJQsqaUBKTNV-1" source="Nb0FAlVZq8CyjeHVWFym-70" edge="1">
          <mxGeometry relative="1" as="geometry">
            <mxPoint x="1090" y="470" as="targetPoint" />
          </mxGeometry>
        </mxCell>
        <mxCell id="Nb0FAlVZq8CyjeHVWFym-83" style="edgeStyle=orthogonalEdgeStyle;rounded=0;orthogonalLoop=1;jettySize=auto;html=1;exitX=0.5;exitY=1;exitDx=0;exitDy=0;entryX=0.5;entryY=0;entryDx=0;entryDy=0;" parent="WIyWlLk6GJQsqaUBKTNV-1" source="Nb0FAlVZq8CyjeHVWFym-70" target="Nb0FAlVZq8CyjeHVWFym-82" edge="1">
          <mxGeometry relative="1" as="geometry" />
        </mxCell>
        <mxCell id="Nb0FAlVZq8CyjeHVWFym-70" value="check if user&lt;div&gt;entered a age or if the age is in a valid range&lt;/div&gt;" style="rhombus;whiteSpace=wrap;html=1;" parent="WIyWlLk6GJQsqaUBKTNV-1" vertex="1">
          <mxGeometry x="930" y="420" width="110" height="100" as="geometry" />
        </mxCell>
        <mxCell id="Nb0FAlVZq8CyjeHVWFym-74" style="edgeStyle=orthogonalEdgeStyle;rounded=0;orthogonalLoop=1;jettySize=auto;html=1;exitX=0.5;exitY=1;exitDx=0;exitDy=0;entryX=0.5;entryY=0;entryDx=0;entryDy=0;" parent="WIyWlLk6GJQsqaUBKTNV-1" source="Nb0FAlVZq8CyjeHVWFym-72" target="Nb0FAlVZq8CyjeHVWFym-70" edge="1">
          <mxGeometry relative="1" as="geometry" />
        </mxCell>
        <mxCell id="Nb0FAlVZq8CyjeHVWFym-72" value="adds username to list" style="whiteSpace=wrap;html=1;" parent="WIyWlLk6GJQsqaUBKTNV-1" vertex="1">
          <mxGeometry x="932.5" y="330" width="90" height="50" as="geometry" />
        </mxCell>
        <mxCell id="Nb0FAlVZq8CyjeHVWFym-75" value="True" style="text;html=1;align=center;verticalAlign=middle;resizable=0;points=[];autosize=1;strokeColor=none;fillColor=none;" parent="WIyWlLk6GJQsqaUBKTNV-1" vertex="1">
          <mxGeometry x="975" y="298" width="50" height="30" as="geometry" />
        </mxCell>
        <mxCell id="Nb0FAlVZq8CyjeHVWFym-77" value="False" style="text;html=1;align=center;verticalAlign=middle;resizable=0;points=[];autosize=1;strokeColor=none;fillColor=none;" parent="WIyWlLk6GJQsqaUBKTNV-1" vertex="1">
          <mxGeometry x="1045" y="443" width="50" height="30" as="geometry" />
        </mxCell>
        <mxCell id="Nb0FAlVZq8CyjeHVWFym-81" style="edgeStyle=orthogonalEdgeStyle;rounded=0;orthogonalLoop=1;jettySize=auto;html=1;exitX=0.5;exitY=1;exitDx=0;exitDy=0;entryX=1;entryY=0.5;entryDx=0;entryDy=0;" parent="WIyWlLk6GJQsqaUBKTNV-1" source="Nb0FAlVZq8CyjeHVWFym-78" target="Nb0FAlVZq8CyjeHVWFym-66" edge="1">
          <mxGeometry relative="1" as="geometry" />
        </mxCell>
        <mxCell id="Nb0FAlVZq8CyjeHVWFym-78" value="alert to enter a valid age" style="whiteSpace=wrap;html=1;" parent="WIyWlLk6GJQsqaUBKTNV-1" vertex="1">
          <mxGeometry x="1095" y="448" width="75" height="50" as="geometry" />
        </mxCell>
        <mxCell id="Nb0FAlVZq8CyjeHVWFym-86" style="edgeStyle=orthogonalEdgeStyle;rounded=0;orthogonalLoop=1;jettySize=auto;html=1;exitX=0.5;exitY=1;exitDx=0;exitDy=0;entryX=0.5;entryY=0;entryDx=0;entryDy=0;" parent="WIyWlLk6GJQsqaUBKTNV-1" source="Nb0FAlVZq8CyjeHVWFym-82" target="Nb0FAlVZq8CyjeHVWFym-85" edge="1">
          <mxGeometry relative="1" as="geometry" />
        </mxCell>
        <mxCell id="Nb0FAlVZq8CyjeHVWFym-82" value="add age to list" style="whiteSpace=wrap;html=1;" parent="WIyWlLk6GJQsqaUBKTNV-1" vertex="1">
          <mxGeometry x="940" y="560" width="90" height="40" as="geometry" />
        </mxCell>
        <mxCell id="Nb0FAlVZq8CyjeHVWFym-84" value="True" style="text;html=1;align=center;verticalAlign=middle;resizable=0;points=[];autosize=1;strokeColor=none;fillColor=none;" parent="WIyWlLk6GJQsqaUBKTNV-1" vertex="1">
          <mxGeometry x="980" y="520" width="50" height="30" as="geometry" />
        </mxCell>
        <mxCell id="Nb0FAlVZq8CyjeHVWFym-88" style="edgeStyle=orthogonalEdgeStyle;rounded=0;orthogonalLoop=1;jettySize=auto;html=1;exitX=0.5;exitY=1;exitDx=0;exitDy=0;entryX=0.5;entryY=0;entryDx=0;entryDy=0;" parent="WIyWlLk6GJQsqaUBKTNV-1" source="Nb0FAlVZq8CyjeHVWFym-85" target="Nb0FAlVZq8CyjeHVWFym-87" edge="1">
          <mxGeometry relative="1" as="geometry" />
        </mxCell>
        <mxCell id="Nb0FAlVZq8CyjeHVWFym-85" value="gets user&#39;s checkbox&amp;nbsp;&lt;div&gt;entries&lt;/div&gt;" style="shape=parallelogram;perimeter=parallelogramPerimeter;whiteSpace=wrap;html=1;fixedSize=1;" parent="WIyWlLk6GJQsqaUBKTNV-1" vertex="1">
          <mxGeometry x="915" y="660" width="140" height="60" as="geometry" />
        </mxCell>
        <mxCell id="Nb0FAlVZq8CyjeHVWFym-90" style="edgeStyle=orthogonalEdgeStyle;rounded=0;orthogonalLoop=1;jettySize=auto;html=1;exitX=1;exitY=0.5;exitDx=0;exitDy=0;entryX=0;entryY=0.5;entryDx=0;entryDy=0;" parent="WIyWlLk6GJQsqaUBKTNV-1" source="Nb0FAlVZq8CyjeHVWFym-87" target="Nb0FAlVZq8CyjeHVWFym-89" edge="1">
          <mxGeometry relative="1" as="geometry" />
        </mxCell>
        <mxCell id="Nb0FAlVZq8CyjeHVWFym-93" style="edgeStyle=orthogonalEdgeStyle;rounded=0;orthogonalLoop=1;jettySize=auto;html=1;exitX=0.5;exitY=1;exitDx=0;exitDy=0;entryX=0.5;entryY=0;entryDx=0;entryDy=0;" parent="WIyWlLk6GJQsqaUBKTNV-1" source="Nb0FAlVZq8CyjeHVWFym-87" target="Nb0FAlVZq8CyjeHVWFym-92" edge="1">
          <mxGeometry relative="1" as="geometry">
            <Array as="points">
              <mxPoint x="900" y="860" />
              <mxPoint x="900" y="880" />
            </Array>
          </mxGeometry>
        </mxCell>
        <mxCell id="Nb0FAlVZq8CyjeHVWFym-87" value="check if they&lt;div&gt;check at least one check box&lt;/div&gt;" style="rhombus;whiteSpace=wrap;html=1;" parent="WIyWlLk6GJQsqaUBKTNV-1" vertex="1">
          <mxGeometry x="905" y="760" width="100" height="100" as="geometry" />
        </mxCell>
        <mxCell id="Nb0FAlVZq8CyjeHVWFym-91" style="edgeStyle=orthogonalEdgeStyle;rounded=0;orthogonalLoop=1;jettySize=auto;html=1;exitX=0.5;exitY=1;exitDx=0;exitDy=0;entryX=1;entryY=0.5;entryDx=0;entryDy=0;" parent="WIyWlLk6GJQsqaUBKTNV-1" source="Nb0FAlVZq8CyjeHVWFym-89" target="Nb0FAlVZq8CyjeHVWFym-66" edge="1">
          <mxGeometry relative="1" as="geometry" />
        </mxCell>
        <mxCell id="Nb0FAlVZq8CyjeHVWFym-89" value="alert to enter a least one checkbox" style="whiteSpace=wrap;html=1;" parent="WIyWlLk6GJQsqaUBKTNV-1" vertex="1">
          <mxGeometry x="1045" y="790" width="80" height="40" as="geometry" />
        </mxCell>
        <mxCell id="Nb0FAlVZq8CyjeHVWFym-100" style="edgeStyle=orthogonalEdgeStyle;rounded=0;orthogonalLoop=1;jettySize=auto;html=1;exitX=1;exitY=0.5;exitDx=0;exitDy=0;entryX=0;entryY=0.5;entryDx=0;entryDy=0;" parent="WIyWlLk6GJQsqaUBKTNV-1" source="Nb0FAlVZq8CyjeHVWFym-92" target="Nb0FAlVZq8CyjeHVWFym-99" edge="1">
          <mxGeometry relative="1" as="geometry" />
        </mxCell>
        <mxCell id="Nb0FAlVZq8CyjeHVWFym-108" style="edgeStyle=orthogonalEdgeStyle;rounded=0;orthogonalLoop=1;jettySize=auto;html=1;exitX=0;exitY=0.5;exitDx=0;exitDy=0;entryX=0.5;entryY=0;entryDx=0;entryDy=0;" parent="WIyWlLk6GJQsqaUBKTNV-1" source="Nb0FAlVZq8CyjeHVWFym-92" target="Nb0FAlVZq8CyjeHVWFym-106" edge="1">
          <mxGeometry relative="1" as="geometry" />
        </mxCell>
        <mxCell id="Nb0FAlVZq8CyjeHVWFym-92" value="check if only&amp;nbsp;&lt;span style=&quot;background-color: transparent; color: light-dark(rgb(0, 0, 0), rgb(255, 255, 255));&quot;&gt;one&lt;/span&gt;&lt;div&gt;&lt;span style=&quot;background-color: transparent; color: light-dark(rgb(0, 0, 0), rgb(255, 255, 255));&quot;&gt;&amp;nbsp;checkbox was&amp;nbsp;&lt;/span&gt;&lt;div&gt;checked&lt;/div&gt;&lt;/div&gt;" style="rhombus;whiteSpace=wrap;html=1;" parent="WIyWlLk6GJQsqaUBKTNV-1" vertex="1">
          <mxGeometry x="840" y="880" width="110" height="100" as="geometry" />
        </mxCell>
        <mxCell id="Nb0FAlVZq8CyjeHVWFym-94" value="False" style="text;html=1;align=center;verticalAlign=middle;resizable=0;points=[];autosize=1;strokeColor=none;fillColor=none;" parent="WIyWlLk6GJQsqaUBKTNV-1" vertex="1">
          <mxGeometry x="1000" y="780" width="50" height="30" as="geometry" />
        </mxCell>
        <mxCell id="Nb0FAlVZq8CyjeHVWFym-96" value="Fasle" style="text;html=1;align=center;verticalAlign=middle;resizable=0;points=[];autosize=1;strokeColor=none;fillColor=none;" parent="WIyWlLk6GJQsqaUBKTNV-1" vertex="1">
          <mxGeometry x="940" y="900" width="50" height="30" as="geometry" />
        </mxCell>
        <mxCell id="Nb0FAlVZq8CyjeHVWFym-102" style="edgeStyle=orthogonalEdgeStyle;rounded=0;orthogonalLoop=1;jettySize=auto;html=1;exitX=0.5;exitY=1;exitDx=0;exitDy=0;entryX=1;entryY=0.5;entryDx=0;entryDy=0;" parent="WIyWlLk6GJQsqaUBKTNV-1" source="Nb0FAlVZq8CyjeHVWFym-99" target="Nb0FAlVZq8CyjeHVWFym-66" edge="1">
          <mxGeometry relative="1" as="geometry">
            <Array as="points">
              <mxPoint x="1045" y="950" />
              <mxPoint x="1045" y="1125" />
            </Array>
          </mxGeometry>
        </mxCell>
        <mxCell id="Nb0FAlVZq8CyjeHVWFym-99" value="alert to only check one cehckbox" style="whiteSpace=wrap;html=1;" parent="WIyWlLk6GJQsqaUBKTNV-1" vertex="1">
          <mxGeometry x="990" y="910" width="70" height="40" as="geometry" />
        </mxCell>
        <mxCell id="Nb0FAlVZq8CyjeHVWFym-110" style="edgeStyle=orthogonalEdgeStyle;rounded=0;orthogonalLoop=1;jettySize=auto;html=1;exitX=0.5;exitY=1;exitDx=0;exitDy=0;entryX=0.5;entryY=0;entryDx=0;entryDy=0;" parent="WIyWlLk6GJQsqaUBKTNV-1" source="Nb0FAlVZq8CyjeHVWFym-106" target="Nb0FAlVZq8CyjeHVWFym-107" edge="1">
          <mxGeometry relative="1" as="geometry" />
        </mxCell>
        <mxCell id="Nb0FAlVZq8CyjeHVWFym-106" value="get the value of checked checkbox" style="shape=parallelogram;perimeter=parallelogramPerimeter;whiteSpace=wrap;html=1;fixedSize=1;" parent="WIyWlLk6GJQsqaUBKTNV-1" vertex="1">
          <mxGeometry x="670" y="948" width="120" height="60" as="geometry" />
        </mxCell>
        <mxCell id="Nb0FAlVZq8CyjeHVWFym-112" style="edgeStyle=orthogonalEdgeStyle;rounded=0;orthogonalLoop=1;jettySize=auto;html=1;exitX=1;exitY=0.5;exitDx=0;exitDy=0;entryX=0;entryY=0.5;entryDx=0;entryDy=0;" parent="WIyWlLk6GJQsqaUBKTNV-1" source="Nb0FAlVZq8CyjeHVWFym-107" target="Nb0FAlVZq8CyjeHVWFym-111" edge="1">
          <mxGeometry relative="1" as="geometry" />
        </mxCell>
        <mxCell id="Nb0FAlVZq8CyjeHVWFym-107" value="add value to list" style="whiteSpace=wrap;html=1;" parent="WIyWlLk6GJQsqaUBKTNV-1" vertex="1">
          <mxGeometry x="690" y="1040" width="80" height="50" as="geometry" />
        </mxCell>
        <mxCell id="Nb0FAlVZq8CyjeHVWFym-109" value="True" style="text;html=1;align=center;verticalAlign=middle;resizable=0;points=[];autosize=1;strokeColor=none;fillColor=none;" parent="WIyWlLk6GJQsqaUBKTNV-1" vertex="1">
          <mxGeometry x="775" y="898" width="50" height="30" as="geometry" />
        </mxCell>
        <mxCell id="Nb0FAlVZq8CyjeHVWFym-113" style="edgeStyle=orthogonalEdgeStyle;rounded=0;orthogonalLoop=1;jettySize=auto;html=1;exitX=1;exitY=0.5;exitDx=0;exitDy=0;entryX=0.5;entryY=0;entryDx=0;entryDy=0;" parent="WIyWlLk6GJQsqaUBKTNV-1" source="Nb0FAlVZq8CyjeHVWFym-111" target="Nb0FAlVZq8CyjeHVWFym-66" edge="1">
          <mxGeometry relative="1" as="geometry" />
        </mxCell>
        <mxCell id="Nb0FAlVZq8CyjeHVWFym-111" value="add_data(list)" style="whiteSpace=wrap;html=1;" parent="WIyWlLk6GJQsqaUBKTNV-1" vertex="1">
          <mxGeometry x="835" y="1030" width="85" height="45" as="geometry" />
        </mxCell>
        <mxCell id="Nb0FAlVZq8CyjeHVWFym-114" style="edgeStyle=orthogonalEdgeStyle;rounded=0;orthogonalLoop=1;jettySize=auto;html=1;exitX=0.5;exitY=1;exitDx=0;exitDy=0;entryX=0;entryY=0.5;entryDx=0;entryDy=0;entryPerimeter=0;" parent="WIyWlLk6GJQsqaUBKTNV-1" source="Nb0FAlVZq8CyjeHVWFym-111" target="fssildkIFDFYgh99PBcJ-0" edge="1">
          <mxGeometry relative="1" as="geometry">
            <Array as="points">
              <mxPoint x="878" y="1160" />
              <mxPoint y="1160" />
              <mxPoint y="80" />
            </Array>
          </mxGeometry>
        </mxCell>
        <mxCell id="Nb0FAlVZq8CyjeHVWFym-119" style="edgeStyle=orthogonalEdgeStyle;rounded=0;orthogonalLoop=1;jettySize=auto;html=1;exitX=0.5;exitY=1;exitDx=0;exitDy=0;entryX=0.5;entryY=0;entryDx=0;entryDy=0;" parent="WIyWlLk6GJQsqaUBKTNV-1" source="Nb0FAlVZq8CyjeHVWFym-116" target="Nb0FAlVZq8CyjeHVWFym-118" edge="1">
          <mxGeometry relative="1" as="geometry" />
        </mxCell>
        <mxCell id="Nb0FAlVZq8CyjeHVWFym-116" value="call initialize_database" style="whiteSpace=wrap;html=1;" parent="WIyWlLk6GJQsqaUBKTNV-1" vertex="1">
          <mxGeometry x="-360" y="190" width="120" height="60" as="geometry" />
        </mxCell>
        <mxCell id="Nb0FAlVZq8CyjeHVWFym-117" style="edgeStyle=orthogonalEdgeStyle;rounded=0;orthogonalLoop=1;jettySize=auto;html=1;exitX=1;exitY=0.5;exitDx=0;exitDy=0;entryX=0;entryY=0.5;entryDx=0;entryDy=0;entryPerimeter=0;" parent="WIyWlLk6GJQsqaUBKTNV-1" source="Nb0FAlVZq8CyjeHVWFym-116" target="fssildkIFDFYgh99PBcJ-2" edge="1">
          <mxGeometry relative="1" as="geometry">
            <Array as="points">
              <mxPoint x="-100" y="220" />
              <mxPoint x="-100" y="10" />
              <mxPoint x="560" y="10" />
            </Array>
          </mxGeometry>
        </mxCell>
        <mxCell id="Nb0FAlVZq8CyjeHVWFym-122" style="edgeStyle=orthogonalEdgeStyle;rounded=0;orthogonalLoop=1;jettySize=auto;html=1;exitX=0.5;exitY=1;exitDx=0;exitDy=0;entryX=0.5;entryY=0;entryDx=0;entryDy=0;" parent="WIyWlLk6GJQsqaUBKTNV-1" source="Nb0FAlVZq8CyjeHVWFym-118" target="Nb0FAlVZq8CyjeHVWFym-121" edge="1">
          <mxGeometry relative="1" as="geometry" />
        </mxCell>
        <mxCell id="Nb0FAlVZq8CyjeHVWFym-118" value="call main_user_update" style="whiteSpace=wrap;html=1;" parent="WIyWlLk6GJQsqaUBKTNV-1" vertex="1">
          <mxGeometry x="-360" y="283" width="120" height="60" as="geometry" />
        </mxCell>
        <mxCell id="Nb0FAlVZq8CyjeHVWFym-120" style="edgeStyle=orthogonalEdgeStyle;rounded=0;orthogonalLoop=1;jettySize=auto;html=1;exitX=1;exitY=0.5;exitDx=0;exitDy=0;entryX=0.5;entryY=0;entryDx=0;entryDy=0;entryPerimeter=0;" parent="WIyWlLk6GJQsqaUBKTNV-1" source="Nb0FAlVZq8CyjeHVWFym-118" target="fssildkIFDFYgh99PBcJ-1" edge="1">
          <mxGeometry relative="1" as="geometry">
            <Array as="points">
              <mxPoint x="-50" y="313" />
              <mxPoint x="-50" y="30" />
              <mxPoint x="345" y="30" />
            </Array>
          </mxGeometry>
        </mxCell>
        <mxCell id="Nb0FAlVZq8CyjeHVWFym-121" value="end" style="ellipse;whiteSpace=wrap;html=1;" parent="WIyWlLk6GJQsqaUBKTNV-1" vertex="1">
          <mxGeometry x="-360" y="390" width="120" height="80" as="geometry" />
        </mxCell>
        <mxCell id="Nb0FAlVZq8CyjeHVWFym-125" style="edgeStyle=orthogonalEdgeStyle;rounded=0;orthogonalLoop=1;jettySize=auto;html=1;exitX=0.5;exitY=1;exitDx=0;exitDy=0;entryX=0.5;entryY=0;entryDx=0;entryDy=0;" parent="WIyWlLk6GJQsqaUBKTNV-1" source="Nb0FAlVZq8CyjeHVWFym-123" target="Nb0FAlVZq8CyjeHVWFym-124" edge="1">
          <mxGeometry relative="1" as="geometry" />
        </mxCell>
        <mxCell id="Nb0FAlVZq8CyjeHVWFym-123" value="function table" style="ellipse;whiteSpace=wrap;html=1;" parent="WIyWlLk6GJQsqaUBKTNV-1" vertex="1">
          <mxGeometry x="-739" y="29" width="120" height="80" as="geometry" />
        </mxCell>
        <mxCell id="Nb0FAlVZq8CyjeHVWFym-127" style="edgeStyle=orthogonalEdgeStyle;rounded=0;orthogonalLoop=1;jettySize=auto;html=1;exitX=0.5;exitY=1;exitDx=0;exitDy=0;entryX=0.5;entryY=0;entryDx=0;entryDy=0;" parent="WIyWlLk6GJQsqaUBKTNV-1" source="Nb0FAlVZq8CyjeHVWFym-124" target="Nb0FAlVZq8CyjeHVWFym-126" edge="1">
          <mxGeometry relative="1" as="geometry" />
        </mxCell>
        <mxCell id="Nb0FAlVZq8CyjeHVWFym-124" value="gets the localstorage&lt;div&gt;database&lt;/div&gt;" style="shape=parallelogram;perimeter=parallelogramPerimeter;whiteSpace=wrap;html=1;fixedSize=1;" parent="WIyWlLk6GJQsqaUBKTNV-1" vertex="1">
          <mxGeometry x="-760" y="150" width="140" height="60" as="geometry" />
        </mxCell>
        <mxCell id="Nb0FAlVZq8CyjeHVWFym-130" style="edgeStyle=orthogonalEdgeStyle;rounded=0;orthogonalLoop=1;jettySize=auto;html=1;exitX=1;exitY=0.5;exitDx=0;exitDy=0;entryX=0;entryY=0.5;entryDx=0;entryDy=0;" parent="WIyWlLk6GJQsqaUBKTNV-1" source="Nb0FAlVZq8CyjeHVWFym-126" target="Nb0FAlVZq8CyjeHVWFym-128" edge="1">
          <mxGeometry relative="1" as="geometry" />
        </mxCell>
        <mxCell id="Nb0FAlVZq8CyjeHVWFym-136" value="" style="edgeStyle=orthogonalEdgeStyle;rounded=0;orthogonalLoop=1;jettySize=auto;html=1;" parent="WIyWlLk6GJQsqaUBKTNV-1" source="Nb0FAlVZq8CyjeHVWFym-126" edge="1">
          <mxGeometry relative="1" as="geometry">
            <mxPoint x="-700" y="390" as="targetPoint" />
          </mxGeometry>
        </mxCell>
        <mxCell id="Nb0FAlVZq8CyjeHVWFym-126" value="check if they is data in the database" style="rhombus;whiteSpace=wrap;html=1;" parent="WIyWlLk6GJQsqaUBKTNV-1" vertex="1">
          <mxGeometry x="-750" y="250" width="100" height="90" as="geometry" />
        </mxCell>
        <mxCell id="Nb0FAlVZq8CyjeHVWFym-133" style="edgeStyle=orthogonalEdgeStyle;rounded=0;orthogonalLoop=1;jettySize=auto;html=1;exitX=1;exitY=0.5;exitDx=0;exitDy=0;entryX=1;entryY=0.5;entryDx=0;entryDy=0;" parent="WIyWlLk6GJQsqaUBKTNV-1" edge="1">
          <mxGeometry relative="1" as="geometry">
            <mxPoint x="-490" y="298" as="sourcePoint" />
            <mxPoint x="-300" y="1803" as="targetPoint" />
            <Array as="points">
              <mxPoint x="-490" y="308" />
              <mxPoint x="-370" y="308" />
              <mxPoint x="-370" y="480" />
              <mxPoint x="-250" y="480" />
              <mxPoint x="-250" y="1803" />
            </Array>
          </mxGeometry>
        </mxCell>
        <mxCell id="Nb0FAlVZq8CyjeHVWFym-128" value="alert no user found" style="whiteSpace=wrap;html=1;" parent="WIyWlLk6GJQsqaUBKTNV-1" vertex="1">
          <mxGeometry x="-560" y="270" width="70" height="50" as="geometry" />
        </mxCell>
        <mxCell id="Nb0FAlVZq8CyjeHVWFym-129" value="end" style="ellipse;whiteSpace=wrap;html=1;" parent="WIyWlLk6GJQsqaUBKTNV-1" vertex="1">
          <mxGeometry x="-400" y="1770" width="100" height="60" as="geometry" />
        </mxCell>
        <mxCell id="Nb0FAlVZq8CyjeHVWFym-134" value="False" style="text;html=1;align=center;verticalAlign=middle;resizable=0;points=[];autosize=1;strokeColor=none;fillColor=none;" parent="WIyWlLk6GJQsqaUBKTNV-1" vertex="1">
          <mxGeometry x="-645" y="268" width="50" height="30" as="geometry" />
        </mxCell>
        <mxCell id="Nb0FAlVZq8CyjeHVWFym-137" value="True" style="text;html=1;align=center;verticalAlign=middle;resizable=0;points=[];autosize=1;strokeColor=none;fillColor=none;" parent="WIyWlLk6GJQsqaUBKTNV-1" vertex="1">
          <mxGeometry x="-685" y="338" width="50" height="30" as="geometry" />
        </mxCell>
        <mxCell id="Nb0FAlVZq8CyjeHVWFym-140" style="edgeStyle=orthogonalEdgeStyle;rounded=0;orthogonalLoop=1;jettySize=auto;html=1;exitX=0.5;exitY=1;exitDx=0;exitDy=0;entryX=0.5;entryY=0;entryDx=0;entryDy=0;" parent="WIyWlLk6GJQsqaUBKTNV-1" source="Nb0FAlVZq8CyjeHVWFym-138" target="Nb0FAlVZq8CyjeHVWFym-139" edge="1">
          <mxGeometry relative="1" as="geometry" />
        </mxCell>
        <mxCell id="Nb0FAlVZq8CyjeHVWFym-138" value="gets table element&amp;nbsp;&lt;div&gt;form the website&lt;/div&gt;" style="shape=parallelogram;perimeter=parallelogramPerimeter;whiteSpace=wrap;html=1;fixedSize=1;" parent="WIyWlLk6GJQsqaUBKTNV-1" vertex="1">
          <mxGeometry x="-760" y="390" width="120" height="60" as="geometry" />
        </mxCell>
        <mxCell id="Nb0FAlVZq8CyjeHVWFym-142" value="" style="edgeStyle=orthogonalEdgeStyle;rounded=0;orthogonalLoop=1;jettySize=auto;html=1;" parent="WIyWlLk6GJQsqaUBKTNV-1" source="Nb0FAlVZq8CyjeHVWFym-139" edge="1">
          <mxGeometry relative="1" as="geometry">
            <mxPoint x="-690" y="630" as="targetPoint" />
          </mxGeometry>
        </mxCell>
        <mxCell id="Nb0FAlVZq8CyjeHVWFym-175" style="edgeStyle=orthogonalEdgeStyle;rounded=0;orthogonalLoop=1;jettySize=auto;html=1;exitX=1;exitY=0.5;exitDx=0;exitDy=0;entryX=1;entryY=0.5;entryDx=0;entryDy=0;" parent="WIyWlLk6GJQsqaUBKTNV-1" source="Nb0FAlVZq8CyjeHVWFym-139" target="Nb0FAlVZq8CyjeHVWFym-171" edge="1">
          <mxGeometry relative="1" as="geometry">
            <mxPoint x="-430" y="1380" as="targetPoint" />
            <Array as="points">
              <mxPoint x="-490" y="535" />
              <mxPoint x="-490" y="1380" />
              <mxPoint x="-658" y="1380" />
            </Array>
          </mxGeometry>
        </mxCell>
        <mxCell id="Nb0FAlVZq8CyjeHVWFym-139" value="check if table element is already in website" style="rhombus;whiteSpace=wrap;html=1;" parent="WIyWlLk6GJQsqaUBKTNV-1" vertex="1">
          <mxGeometry x="-740" y="490" width="100" height="90" as="geometry" />
        </mxCell>
        <mxCell id="Nb0FAlVZq8CyjeHVWFym-143" value="False" style="text;html=1;align=center;verticalAlign=middle;resizable=0;points=[];autosize=1;strokeColor=none;fillColor=none;" parent="WIyWlLk6GJQsqaUBKTNV-1" vertex="1">
          <mxGeometry x="-695" y="578" width="50" height="30" as="geometry" />
        </mxCell>
        <mxCell id="Nb0FAlVZq8CyjeHVWFym-146" style="edgeStyle=orthogonalEdgeStyle;rounded=0;orthogonalLoop=1;jettySize=auto;html=1;exitX=0.5;exitY=1;exitDx=0;exitDy=0;" parent="WIyWlLk6GJQsqaUBKTNV-1" source="Nb0FAlVZq8CyjeHVWFym-145" edge="1">
          <mxGeometry relative="1" as="geometry">
            <mxPoint x="-687" y="750" as="targetPoint" />
          </mxGeometry>
        </mxCell>
        <mxCell id="Nb0FAlVZq8CyjeHVWFym-145" value="create table&amp;nbsp; element&lt;div&gt;&lt;br&gt;&lt;/div&gt;" style="shape=parallelogram;perimeter=parallelogramPerimeter;whiteSpace=wrap;html=1;fixedSize=1;" parent="WIyWlLk6GJQsqaUBKTNV-1" vertex="1">
          <mxGeometry x="-755" y="630" width="135" height="60" as="geometry" />
        </mxCell>
        <mxCell id="Nb0FAlVZq8CyjeHVWFym-149" style="edgeStyle=orthogonalEdgeStyle;rounded=0;orthogonalLoop=1;jettySize=auto;html=1;exitX=0.5;exitY=1;exitDx=0;exitDy=0;" parent="WIyWlLk6GJQsqaUBKTNV-1" source="Nb0FAlVZq8CyjeHVWFym-148" target="Nb0FAlVZq8CyjeHVWFym-150" edge="1">
          <mxGeometry relative="1" as="geometry">
            <mxPoint x="-700" y="850" as="targetPoint" />
          </mxGeometry>
        </mxCell>
        <mxCell id="Nb0FAlVZq8CyjeHVWFym-148" value="create header row" style="shape=parallelogram;perimeter=parallelogramPerimeter;whiteSpace=wrap;html=1;fixedSize=1;" parent="WIyWlLk6GJQsqaUBKTNV-1" vertex="1">
          <mxGeometry x="-750" y="750" width="120" height="60" as="geometry" />
        </mxCell>
        <mxCell id="Nb0FAlVZq8CyjeHVWFym-152" value="" style="edgeStyle=orthogonalEdgeStyle;rounded=0;orthogonalLoop=1;jettySize=auto;html=1;" parent="WIyWlLk6GJQsqaUBKTNV-1" source="Nb0FAlVZq8CyjeHVWFym-150" target="Nb0FAlVZq8CyjeHVWFym-151" edge="1">
          <mxGeometry relative="1" as="geometry" />
        </mxCell>
        <mxCell id="Nb0FAlVZq8CyjeHVWFym-150" value="define name for headers" style="rounded=0;whiteSpace=wrap;html=1;" parent="WIyWlLk6GJQsqaUBKTNV-1" vertex="1">
          <mxGeometry x="-760" y="850" width="90" height="30" as="geometry" />
        </mxCell>
        <mxCell id="Nb0FAlVZq8CyjeHVWFym-156" style="edgeStyle=orthogonalEdgeStyle;rounded=0;orthogonalLoop=1;jettySize=auto;html=1;exitX=0.5;exitY=1;exitDx=0;exitDy=0;entryX=0.5;entryY=0;entryDx=0;entryDy=0;" parent="WIyWlLk6GJQsqaUBKTNV-1" source="Nb0FAlVZq8CyjeHVWFym-151" target="Nb0FAlVZq8CyjeHVWFym-155" edge="1">
          <mxGeometry relative="1" as="geometry" />
        </mxCell>
        <mxCell id="Nb0FAlVZq8CyjeHVWFym-159" style="edgeStyle=orthogonalEdgeStyle;rounded=0;orthogonalLoop=1;jettySize=auto;html=1;exitX=1;exitY=0.5;exitDx=0;exitDy=0;entryX=0.5;entryY=0;entryDx=0;entryDy=0;" parent="WIyWlLk6GJQsqaUBKTNV-1" source="Nb0FAlVZq8CyjeHVWFym-151" target="Nb0FAlVZq8CyjeHVWFym-158" edge="1">
          <mxGeometry relative="1" as="geometry" />
        </mxCell>
        <mxCell id="Nb0FAlVZq8CyjeHVWFym-169" style="edgeStyle=orthogonalEdgeStyle;rounded=0;orthogonalLoop=1;jettySize=auto;html=1;exitX=0;exitY=0.5;exitDx=0;exitDy=0;" parent="WIyWlLk6GJQsqaUBKTNV-1" source="Nb0FAlVZq8CyjeHVWFym-151" edge="1">
          <mxGeometry relative="1" as="geometry">
            <mxPoint x="-770" y="1230" as="targetPoint" />
            <Array as="points">
              <mxPoint x="-810" y="974" />
              <mxPoint x="-810" y="1230" />
            </Array>
          </mxGeometry>
        </mxCell>
        <mxCell id="Nb0FAlVZq8CyjeHVWFym-151" value="for&amp;nbsp; i &amp;lt; length of header name" style="rhombus;whiteSpace=wrap;html=1;" parent="WIyWlLk6GJQsqaUBKTNV-1" vertex="1">
          <mxGeometry x="-707.5" y="928" width="95" height="92" as="geometry" />
        </mxCell>
        <mxCell id="Nb0FAlVZq8CyjeHVWFym-157" style="edgeStyle=orthogonalEdgeStyle;rounded=0;orthogonalLoop=1;jettySize=auto;html=1;exitX=1;exitY=0.5;exitDx=0;exitDy=0;entryX=0.5;entryY=1;entryDx=0;entryDy=0;" parent="WIyWlLk6GJQsqaUBKTNV-1" source="Nb0FAlVZq8CyjeHVWFym-155" target="Nb0FAlVZq8CyjeHVWFym-158" edge="1">
          <mxGeometry relative="1" as="geometry">
            <mxPoint x="-590" y="1050" as="targetPoint" />
            <Array as="points">
              <mxPoint x="-540" y="1120" />
              <mxPoint x="-540" y="1050" />
              <mxPoint x="-545" y="1050" />
            </Array>
          </mxGeometry>
        </mxCell>
        <mxCell id="Nb0FAlVZq8CyjeHVWFym-155" value="add name to header row" style="shape=parallelogram;perimeter=parallelogramPerimeter;whiteSpace=wrap;html=1;fixedSize=1;" parent="WIyWlLk6GJQsqaUBKTNV-1" vertex="1">
          <mxGeometry x="-767.5" y="1090" width="120" height="60" as="geometry" />
        </mxCell>
        <mxCell id="Nb0FAlVZq8CyjeHVWFym-158" value="increment" style="rounded=0;whiteSpace=wrap;html=1;" parent="WIyWlLk6GJQsqaUBKTNV-1" vertex="1">
          <mxGeometry x="-580" y="1010" width="70" height="20" as="geometry" />
        </mxCell>
        <mxCell id="Nb0FAlVZq8CyjeHVWFym-164" value="True" style="text;html=1;align=center;verticalAlign=middle;resizable=0;points=[];autosize=1;strokeColor=none;fillColor=none;" parent="WIyWlLk6GJQsqaUBKTNV-1" vertex="1">
          <mxGeometry x="-715" y="1018" width="50" height="30" as="geometry" />
        </mxCell>
        <mxCell id="Nb0FAlVZq8CyjeHVWFym-172" value="" style="edgeStyle=orthogonalEdgeStyle;rounded=0;orthogonalLoop=1;jettySize=auto;html=1;" parent="WIyWlLk6GJQsqaUBKTNV-1" source="Nb0FAlVZq8CyjeHVWFym-166" target="Nb0FAlVZq8CyjeHVWFym-171" edge="1">
          <mxGeometry relative="1" as="geometry" />
        </mxCell>
        <mxCell id="Nb0FAlVZq8CyjeHVWFym-166" value="add header row to the table" style="shape=parallelogram;perimeter=parallelogramPerimeter;whiteSpace=wrap;html=1;fixedSize=1;" parent="WIyWlLk6GJQsqaUBKTNV-1" vertex="1">
          <mxGeometry x="-767.5" y="1200" width="120" height="60" as="geometry" />
        </mxCell>
        <mxCell id="Nb0FAlVZq8CyjeHVWFym-170" value="Fasle" style="text;html=1;align=center;verticalAlign=middle;resizable=0;points=[];autosize=1;strokeColor=none;fillColor=none;" parent="WIyWlLk6GJQsqaUBKTNV-1" vertex="1">
          <mxGeometry x="-780" y="935" width="50" height="30" as="geometry" />
        </mxCell>
        <mxCell id="Nb0FAlVZq8CyjeHVWFym-178" style="edgeStyle=orthogonalEdgeStyle;rounded=0;orthogonalLoop=1;jettySize=auto;html=1;exitX=0.5;exitY=1;exitDx=0;exitDy=0;entryX=0.5;entryY=0;entryDx=0;entryDy=0;" parent="WIyWlLk6GJQsqaUBKTNV-1" source="Nb0FAlVZq8CyjeHVWFym-171" target="Nb0FAlVZq8CyjeHVWFym-177" edge="1">
          <mxGeometry relative="1" as="geometry" />
        </mxCell>
        <mxCell id="Nb0FAlVZq8CyjeHVWFym-171" value="get how many rows are in the table" style="shape=parallelogram;perimeter=parallelogramPerimeter;whiteSpace=wrap;html=1;fixedSize=1;" parent="WIyWlLk6GJQsqaUBKTNV-1" vertex="1">
          <mxGeometry x="-767.5" y="1340" width="120" height="60" as="geometry" />
        </mxCell>
        <mxCell id="Nb0FAlVZq8CyjeHVWFym-182" style="edgeStyle=orthogonalEdgeStyle;rounded=0;orthogonalLoop=1;jettySize=auto;html=1;exitX=0.5;exitY=1;exitDx=0;exitDy=0;" parent="WIyWlLk6GJQsqaUBKTNV-1" source="Nb0FAlVZq8CyjeHVWFym-176" target="Nb0FAlVZq8CyjeHVWFym-181" edge="1">
          <mxGeometry relative="1" as="geometry" />
        </mxCell>
        <mxCell id="Nb0FAlVZq8CyjeHVWFym-176" value="while i &amp;lt; the amount of user" style="rhombus;whiteSpace=wrap;html=1;" parent="WIyWlLk6GJQsqaUBKTNV-1" vertex="1">
          <mxGeometry x="-770" y="1490" width="110" height="100" as="geometry" />
        </mxCell>
        <mxCell id="Nb0FAlVZq8CyjeHVWFym-179" style="edgeStyle=orthogonalEdgeStyle;rounded=0;orthogonalLoop=1;jettySize=auto;html=1;exitX=0.5;exitY=1;exitDx=0;exitDy=0;entryX=0.5;entryY=0;entryDx=0;entryDy=0;" parent="WIyWlLk6GJQsqaUBKTNV-1" source="Nb0FAlVZq8CyjeHVWFym-177" target="Nb0FAlVZq8CyjeHVWFym-176" edge="1">
          <mxGeometry relative="1" as="geometry" />
        </mxCell>
        <mxCell id="Nb0FAlVZq8CyjeHVWFym-177" value="i is equal to the row count" style="whiteSpace=wrap;html=1;" parent="WIyWlLk6GJQsqaUBKTNV-1" vertex="1">
          <mxGeometry x="-755" y="1430" width="100" height="40" as="geometry" />
        </mxCell>
        <mxCell id="Nb0FAlVZq8CyjeHVWFym-185" style="edgeStyle=orthogonalEdgeStyle;rounded=0;orthogonalLoop=1;jettySize=auto;html=1;exitX=0.5;exitY=1;exitDx=0;exitDy=0;entryX=0.5;entryY=0;entryDx=0;entryDy=0;" parent="WIyWlLk6GJQsqaUBKTNV-1" source="Nb0FAlVZq8CyjeHVWFym-181" target="Nb0FAlVZq8CyjeHVWFym-184" edge="1">
          <mxGeometry relative="1" as="geometry" />
        </mxCell>
        <mxCell id="Nb0FAlVZq8CyjeHVWFym-181" value="get current users data" style="whiteSpace=wrap;html=1;" parent="WIyWlLk6GJQsqaUBKTNV-1" vertex="1">
          <mxGeometry x="-760" y="1640" width="95" height="50" as="geometry" />
        </mxCell>
        <mxCell id="Nb0FAlVZq8CyjeHVWFym-183" value="False" style="text;html=1;align=center;verticalAlign=middle;resizable=0;points=[];autosize=1;strokeColor=none;fillColor=none;" parent="WIyWlLk6GJQsqaUBKTNV-1" vertex="1">
          <mxGeometry x="-715" y="1598" width="50" height="30" as="geometry" />
        </mxCell>
        <mxCell id="Nb0FAlVZq8CyjeHVWFym-189" style="edgeStyle=orthogonalEdgeStyle;rounded=0;orthogonalLoop=1;jettySize=auto;html=1;exitX=0;exitY=0.5;exitDx=0;exitDy=0;entryX=0.5;entryY=1;entryDx=0;entryDy=0;" parent="WIyWlLk6GJQsqaUBKTNV-1" source="Nb0FAlVZq8CyjeHVWFym-184" target="Nb0FAlVZq8CyjeHVWFym-188" edge="1">
          <mxGeometry relative="1" as="geometry" />
        </mxCell>
        <mxCell id="Nb0FAlVZq8CyjeHVWFym-184" value="checks if data is valid" style="rhombus;whiteSpace=wrap;html=1;" parent="WIyWlLk6GJQsqaUBKTNV-1" vertex="1">
          <mxGeometry x="-727.5" y="1730" width="80" height="80" as="geometry" />
        </mxCell>
        <mxCell id="Nb0FAlVZq8CyjeHVWFym-190" style="edgeStyle=orthogonalEdgeStyle;rounded=0;orthogonalLoop=1;jettySize=auto;html=1;exitX=0.5;exitY=0;exitDx=0;exitDy=0;entryX=0;entryY=0.5;entryDx=0;entryDy=0;" parent="WIyWlLk6GJQsqaUBKTNV-1" source="Nb0FAlVZq8CyjeHVWFym-188" target="Nb0FAlVZq8CyjeHVWFym-176" edge="1">
          <mxGeometry relative="1" as="geometry" />
        </mxCell>
        <mxCell id="Nb0FAlVZq8CyjeHVWFym-188" value="increment" style="whiteSpace=wrap;html=1;" parent="WIyWlLk6GJQsqaUBKTNV-1" vertex="1">
          <mxGeometry x="-825" y="1593" width="70" height="40" as="geometry" />
        </mxCell>
      </root>
    </mxGraphModel>
  </diagram>
</mxfile>
